<svg xmlns="http://www.w3.org/2000/svg" viewBox="0 0 1000.1 615.53"><title>logo_bm</title><path d="M895.05,215.05C886.57,290.13,826.6,341.3,778.16,341.3c-66.5,0-101.7-39-154.33-39-61.33,0-106.46,66.31-106.46,71.87,8.47-75.08,68.44-126.25,116.88-126.25,66.51,0,101.7,39,154.34,39C849.92,286.92,895.05,220.61,895.05,215.05Z" transform="translate(0.05 -192.24)"/><path d="M292.75,466.52q-29.37-36.42-67.41-44,7.54-.59,15.68-.59,67.29,0,116.15,41.21,30.87,26.61,48,66.74t17.14,87.35q0,44.66-15.85,82.2T361,761.83q-46.29,39.07-111.44,39.07A214.56,214.56,0,0,1,226,799.62q40.58-6.76,70.13-45.57,20.49-27.18,32.41-65.2a258.26,258.26,0,0,0,11.91-77.65,249.72,249.72,0,0,0-12.63-78.79Q315.16,494.16,292.75,466.52Z" transform="translate(0.05 -192.24)"/><path d="M51,758q15.45-20.57,15.45-69V192.24l131.78,21.89c-23.9,0-41,12-51.41,25.69S131.3,275.88,131.3,307V703.29c0,17.05-1.43,90.2-4.29,104.47L0,783.94C23.71,783.94,40.73,771.72,51,758Z" transform="translate(0.05 -192.24)"/><path d="M798.3,526.63l50.42,154.84q19,60.1,19,79.18c0,25.76-17.84,44.85-53.51,46.76h185.85c-13.69-2.87-23.73-12.1-30.1-17.19q-16.73-12.4-32.49-59.64l-11.52-34.84L830.45,406.57l-39,98.93Z" transform="translate(0.05 -192.24)"/><path d="M537.94,807.41c-20.27-6.74-33.33-18.18-42.26-27.64-13.33-14.11-21.64-33-22.7-56.57q-10.78,26.71-18.88,41-9.32,16.47-19.83,24.58c-10.83,8.9-23.09,18.62-36.79,18.62Z" transform="translate(0.05 -192.24)"/><path d="M560,506.66l40.09-100.09L704.56,725.71l16.69,49.77c5.66,18.37,21.43,30.69,47.31,31.93H582.73c15.61-2.23,26.6-10.83,33-15.28Q631,781.63,631,760.65q0-16.7-9-47.22L566.27,527.55Z" transform="translate(0.05 -192.24)"/><path d="M830.45,406.57l-54.24,137.5c10.84-13.1,19.57-25.18,29.44,5.12" transform="translate(0.05 -192.24)"/><path d="M600.11,406.57l-56.65,137.5C554.3,531,563,518.89,572.9,549.19" transform="translate(0.05 -192.24)"/></svg>